<?xml version="1.0" encoding="UTF-8" standalone="no"?>
<!-- Created with Inkscape (http://www.inkscape.org/) -->

<svg
   width="522.01489mm"
   height="156.44363mm"
   viewBox="0 0 522.01489 156.44363"
   version="1.1"
   id="svg1"
   inkscape:version="1.4 (86a8ad7, 2024-10-11)"
   sodipodi:docname="logo.svg"
   xmlns:inkscape="http://www.inkscape.org/namespaces/inkscape"
   xmlns:sodipodi="http://sodipodi.sourceforge.net/DTD/sodipodi-0.dtd"
   xmlns="http://www.w3.org/2000/svg"
   xmlns:svg="http://www.w3.org/2000/svg">
  <sodipodi:namedview
     id="namedview1"
     pagecolor="#ffffff"
     bordercolor="#000000"
     borderopacity="0.25"
     inkscape:showpageshadow="2"
     inkscape:pageopacity="0.0"
     inkscape:pagecheckerboard="0"
     inkscape:deskcolor="#d1d1d1"
     inkscape:document-units="mm"
     inkscape:zoom="0.61468855"
     inkscape:cx="460.39575"
     inkscape:cy="58.566244"
     inkscape:window-width="1600"
     inkscape:window-height="912"
     inkscape:window-x="2392"
     inkscape:window-y="1342"
     inkscape:window-maximized="1"
     inkscape:current-layer="layer1" />
  <defs
     id="defs1">
    <clipPath
       clipPathUnits="userSpaceOnUse"
       id="clipPath6">
      <path
         d="M 0,1080 H 1920 V 0 H 0 Z"
         transform="translate(-1258.6702,-706.64272)"
         id="path6" />
    </clipPath>
    <clipPath
       clipPathUnits="userSpaceOnUse"
       id="clipPath8">
      <path
         d="M 0,1080 H 1920 V 0 H 0 Z"
         transform="translate(-1302.4956,-706.53102)"
         id="path8" />
    </clipPath>
    <clipPath
       clipPathUnits="userSpaceOnUse"
       id="clipPath10">
      <path
         d="M 0,1080 H 1920 V 0 H 0 Z"
         transform="translate(-1500.1899,-732.86652)"
         id="path10" />
    </clipPath>
    <clipPath
       clipPathUnits="userSpaceOnUse"
       id="clipPath12">
      <path
         d="M 0,1080 H 1920 V 0 H 0 Z"
         transform="translate(-879.0427,-389.63151)"
         id="path12" />
    </clipPath>
    <clipPath
       clipPathUnits="userSpaceOnUse"
       id="clipPath14">
      <path
         d="M 0,1080 H 1920 V 0 H 0 Z"
         transform="translate(-964.207,-353.85371)"
         id="path14" />
    </clipPath>
    <clipPath
       clipPathUnits="userSpaceOnUse"
       id="clipPath16">
      <path
         d="M 0,1080 H 1920 V 0 H 0 Z"
         transform="translate(-1070.613,-356.32861)"
         id="path16" />
    </clipPath>
    <clipPath
       clipPathUnits="userSpaceOnUse"
       id="clipPath18">
      <path
         d="M 0,1080 H 1920 V 0 H 0 Z"
         transform="translate(-1160.6257,-389.63151)"
         id="path18" />
    </clipPath>
    <clipPath
       clipPathUnits="userSpaceOnUse"
       id="clipPath20">
      <path
         d="M 0,1080 H 1920 V 0 H 0 Z"
         transform="translate(-1317.5515,-350.65781)"
         id="path20" />
    </clipPath>
    <clipPath
       clipPathUnits="userSpaceOnUse"
       id="clipPath22">
      <path
         d="M 0,1080 H 1920 V 0 H 0 Z"
         id="path22" />
    </clipPath>
    <clipPath
       clipPathUnits="userSpaceOnUse"
       id="clipPath24">
      <path
         d="M 0,1080 H 1920 V 0 H 0 Z"
         transform="translate(-930.6553,-504.70211)"
         id="path24" />
    </clipPath>
    <clipPath
       clipPathUnits="userSpaceOnUse"
       id="clipPath26">
      <path
         d="M 0,1080 H 1920 V 0 H 0 Z"
         transform="translate(-1033.6576,-504.70211)"
         id="path26" />
    </clipPath>
    <clipPath
       clipPathUnits="userSpaceOnUse"
       id="clipPath28">
      <path
         d="M 0,1080 H 1920 V 0 H 0 Z"
         transform="translate(-1139.4366,-540.99901)"
         id="path28" />
    </clipPath>
    <clipPath
       clipPathUnits="userSpaceOnUse"
       id="clipPath30">
      <path
         d="M 0,1080 H 1920 V 0 H 0 Z"
         transform="translate(-1256.3091,-504.70211)"
         id="path30" />
    </clipPath>
    <clipPath
       clipPathUnits="userSpaceOnUse"
       id="clipPath32">
      <path
         d="M 0,1080 H 1920 V 0 H 0 Z"
         transform="translate(-1358.4441,-534.61001)"
         id="path32" />
    </clipPath>
    <clipPath
       clipPathUnits="userSpaceOnUse"
       id="clipPath34">
      <path
         d="M 0,1080 H 1920 V 0 H 0 Z"
         transform="translate(-1421.0337,-570.16621)"
         id="path34" />
    </clipPath>
    <clipPath
       clipPathUnits="userSpaceOnUse"
       id="clipPath36">
      <path
         d="M 0,1080 H 1920 V 0 H 0 Z"
         id="path36" />
    </clipPath>
    <clipPath
       clipPathUnits="userSpaceOnUse"
       id="clipPath38">
      <path
         d="M 0,1080 H 1920 V 0 H 0 Z"
         transform="translate(-1545.1626,-540.99901)"
         id="path38" />
    </clipPath>
    <clipPath
       clipPathUnits="userSpaceOnUse"
       id="clipPath40">
      <path
         d="M 0,1080 H 1920 V 0 H 0 Z"
         transform="translate(-1644.3582,-504.70211)"
         id="path40" />
    </clipPath>
    <radialGradient
       fx="0"
       fy="0"
       cx="0"
       cy="0"
       r="1"
       gradientUnits="userSpaceOnUse"
       gradientTransform="matrix(55.090523,0,0,55.090519,175.76017,211.33321)"
       spreadMethod="pad"
       id="radialGradient46">
      <stop
         style="stop-opacity:1;stop-color:#db7b39 icc-color(sRGB IEC61966-2.1, 0.85881042, 0.48234558, 0.223526);"
         offset="0"
         id="stop40" />
      <stop
         style="stop-opacity:1;stop-color:#db7b39 icc-color(sRGB IEC61966-2.1, 0.85881042, 0.48234558, 0.223526);"
         offset="0.00837989"
         id="stop41" />
      <stop
         style="stop-opacity:1;stop-color:#db7b39 icc-color(sRGB IEC61966-2.1, 0.85881042, 0.48234558, 0.223526);"
         offset="0.00850079"
         id="stop42" />
      <stop
         style="stop-opacity:1;stop-color:#e37b35 icc-color(sRGB IEC61966-2.1, 0.8901825, 0.48234558, 0.20783997);"
         offset="0.0418994"
         id="stop43" />
      <stop
         style="stop-opacity:1;stop-color:#e37b35 icc-color(sRGB IEC61966-2.1, 0.8901825, 0.48234558, 0.20783997);"
         offset="0.04383313"
         id="stop44" />
      <stop
         style="stop-opacity:1;stop-color:#288193 icc-color(sRGB IEC61966-2.1, 0.15686035, 0.50587463, 0.57646179);"
         offset="0.692737"
         id="stop45" />
      <stop
         style="stop-opacity:1;stop-color:#288193 icc-color(sRGB IEC61966-2.1, 0.15686035, 0.50587463, 0.57646179);"
         offset="1"
         id="stop46" />
    </radialGradient>
    <linearGradient
       x1="0"
       y1="0"
       x2="1"
       y2="0"
       gradientUnits="userSpaceOnUse"
       gradientTransform="matrix(-45.554167,134.18151,-134.18151,-45.554167,86.495205,145.84053)"
       spreadMethod="pad"
       id="linearGradient52">
      <stop
         style="stop-opacity:1;stop-color:#dbf5f7 icc-color(sRGB IEC61966-2.1, 0.85881042, 0.96076965, 0.96861267);"
         offset="0"
         id="stop47" />
      <stop
         style="stop-opacity:1;stop-color:#dbf5f7 icc-color(sRGB IEC61966-2.1, 0.85881042, 0.96076965, 0.96861267);"
         offset="0.0984127"
         id="stop48" />
      <stop
         style="stop-opacity:1;stop-color:#6cb9c6 icc-color(sRGB IEC61966-2.1, 0.42352295, 0.72547913, 0.77645874);"
         offset="0.503175"
         id="stop49" />
      <stop
         style="stop-opacity:1;stop-color:#4ea8b9 icc-color(sRGB IEC61966-2.1, 0.30587769, 0.65881348, 0.72547913);"
         offset="0.580952"
         id="stop50" />
      <stop
         style="stop-opacity:1;stop-color:#3e9bae icc-color(sRGB IEC61966-2.1, 0.24313354, 0.60783386, 0.68234253);"
         offset="0.634921"
         id="stop51" />
      <stop
         style="stop-opacity:1;stop-color:#163a55 icc-color(sRGB IEC61966-2.1, 0.08627319, 0.22744751, 0.33332825);"
         offset="1"
         id="stop52" />
    </linearGradient>
    <clipPath
       clipPathUnits="userSpaceOnUse"
       id="clipPath54">
      <path
         d="M 0,1080 H 1920 V 0 H 0 Z"
         transform="translate(-522.51982,-612.68591)"
         id="path54" />
    </clipPath>
    <clipPath
       clipPathUnits="userSpaceOnUse"
       id="clipPath56">
      <path
         d="M 0,1080 H 1920 V 0 H 0 Z"
         transform="translate(-426.75441,-676.43492)"
         id="path56" />
    </clipPath>
    <linearGradient
       x1="0"
       y1="0"
       x2="1"
       y2="0"
       gradientUnits="userSpaceOnUse"
       gradientTransform="matrix(7.7713176,83.299589,-83.299589,7.7713176,0.47851819,185.24062)"
       spreadMethod="pad"
       id="linearGradient58">
      <stop
         style="stop-opacity:1;stop-color:#e37c21 icc-color(sRGB IEC61966-2.1, 0.8901825, 0.48626709, 0.12940979);"
         offset="0"
         id="stop56" />
      <stop
         style="stop-opacity:1;stop-color:#a43a14 icc-color(sRGB IEC61966-2.1, 0.64312744, 0.22744751, 0.07843018);"
         offset="0.569892"
         id="stop57" />
      <stop
         style="stop-opacity:1;stop-color:#7c1f0d icc-color(sRGB IEC61966-2.1, 0.48626709, 0.12156677, 0.05097961);"
         offset="1"
         id="stop58" />
    </linearGradient>
    <clipPath
       clipPathUnits="userSpaceOnUse"
       id="clipPath60">
      <path
         d="M 0,1080 H 1920 V 0 H 0 Z"
         transform="translate(-344.39611,-375.53961)"
         id="path60" />
    </clipPath>
    <clipPath
       clipPathUnits="userSpaceOnUse"
       id="clipPath62">
      <path
         d="M 0,1080 H 1920 V 0 H 0 Z"
         transform="translate(-449.09961,-722.33422)"
         id="path62" />
    </clipPath>
    <clipPath
       clipPathUnits="userSpaceOnUse"
       id="clipPath64">
      <path
         d="M 0,1080 H 1920 V 0 H 0 Z"
         transform="translate(-414.30491,-724.24662)"
         id="path64" />
    </clipPath>
    <clipPath
       clipPathUnits="userSpaceOnUse"
       id="clipPath66">
      <path
         d="M 0,1080 H 1920 V 0 H 0 Z"
         transform="translate(-345.67301,-411.23901)"
         id="path66" />
    </clipPath>
    <clipPath
       clipPathUnits="userSpaceOnUse"
       id="clipPath68">
      <path
         d="M 0,1080 H 1920 V 0 H 0 Z"
         transform="translate(-341.84241,-384.46441)"
         id="path68" />
    </clipPath>
    <linearGradient
       x1="0"
       y1="0"
       x2="1"
       y2="0"
       gradientUnits="userSpaceOnUse"
       gradientTransform="matrix(-5.2497335,100.39188,-100.39188,-5.2497335,31.158136,146.467)"
       spreadMethod="pad"
       id="linearGradient70">
      <stop
         style="stop-opacity:1;stop-color:#fcda9a icc-color(sRGB IEC61966-2.1, 0.98822021, 0.85488892, 0.60391235);"
         offset="0"
         id="stop68" />
      <stop
         style="stop-opacity:1;stop-color:#e1722b icc-color(sRGB IEC61966-2.1, 0.88233948, 0.447052, 0.16862488);"
         offset="0.612975"
         id="stop69" />
      <stop
         style="stop-opacity:1;stop-color:#b03713 icc-color(sRGB IEC61966-2.1, 0.69018555, 0.21568298, 0.07450867);"
         offset="1"
         id="stop70" />
    </linearGradient>
    <linearGradient
       x1="0"
       y1="0"
       x2="1"
       y2="0"
       gradientUnits="userSpaceOnUse"
       gradientTransform="matrix(0.6366963,70.612896,-70.612896,0.6366963,52.095842,186.73891)"
       spreadMethod="pad"
       id="linearGradient73">
      <stop
         style="stop-opacity:1;stop-color:#2f7594 icc-color(sRGB IEC61966-2.1, 0.18431091, 0.45881653, 0.5803833);"
         offset="0"
         id="stop71" />
      <stop
         style="stop-opacity:1;stop-color:#2f7594 icc-color(sRGB IEC61966-2.1, 0.18431091, 0.45881653, 0.5803833);"
         offset="0.171975"
         id="stop72" />
      <stop
         style="stop-opacity:1;stop-color:#122637 icc-color(sRGB IEC61966-2.1, 0.07058716, 0.14901733, 0.21568298);"
         offset="1"
         id="stop73" />
    </linearGradient>
    <linearGradient
       x1="0"
       y1="0"
       x2="1"
       y2="0"
       gradientUnits="userSpaceOnUse"
       gradientTransform="matrix(5.3749904,102.40719,-102.40719,5.3749904,46.922557,158.98214)"
       spreadMethod="pad"
       id="linearGradient76">
      <stop
         style="stop-opacity:1;stop-color:#c97c1d icc-color(sRGB IEC61966-2.1, 0.78822327, 0.48626709, 0.11372375);"
         offset="0"
         id="stop74" />
      <stop
         style="stop-opacity:1;stop-color:#5a1e10 icc-color(sRGB IEC61966-2.1, 0.35293579, 0.11764526, 0.06274414);"
         offset="0.91886"
         id="stop75" />
      <stop
         style="stop-opacity:1;stop-color:#5a1e10 icc-color(sRGB IEC61966-2.1, 0.35293579, 0.11764526, 0.06274414);"
         offset="1"
         id="stop76" />
    </linearGradient>
    <clipPath
       clipPathUnits="userSpaceOnUse"
       id="clipPath78">
      <path
         d="M 0,1080 H 1920 V 0 H 0 Z"
         transform="translate(-426.75441,-676.43492)"
         id="path78" />
    </clipPath>
    <clipPath
       clipPathUnits="userSpaceOnUse"
       id="clipPath80">
      <path
         d="M 0,1080 H 1920 V 0 H 0 Z"
         transform="translate(-498.89771,-685.99732)"
         id="path80" />
    </clipPath>
    <clipPath
       clipPathUnits="userSpaceOnUse"
       id="clipPath82">
      <path
         d="M 0,1080 H 1920 V 0 H 0 Z"
         transform="translate(-494.42861,-691.73471)"
         id="path82" />
    </clipPath>
    <clipPath
       clipPathUnits="userSpaceOnUse"
       id="clipPath84">
      <path
         d="M 0,1080 H 1920 V 0 H 0 Z"
         transform="translate(-495.70551,-690.45971)"
         id="path84" />
    </clipPath>
    <clipPath
       clipPathUnits="userSpaceOnUse"
       id="clipPath86">
      <path
         d="M 0,1080 H 1920 V 0 H 0 Z"
         transform="translate(-434.09641,-693.64712)"
         id="path86" />
    </clipPath>
    <clipPath
       clipPathUnits="userSpaceOnUse"
       id="clipPath88">
      <path
         d="M 0,1080 H 1920 V 0 H 0 Z"
         transform="translate(-341.84241,-384.46441)"
         id="path88" />
    </clipPath>
    <clipPath
       clipPathUnits="userSpaceOnUse"
       id="clipPath90">
      <path
         d="M 0,1080 H 1920 V 0 H 0 Z"
         transform="translate(-360.35701,-642.01042)"
         id="path90" />
    </clipPath>
    <clipPath
       clipPathUnits="userSpaceOnUse"
       id="clipPath92">
      <path
         d="M 0,1080 H 1920 V 0 H 0 Z"
         transform="translate(-306.98931,-518.28922)"
         id="path92" />
    </clipPath>
    <clipPath
       clipPathUnits="userSpaceOnUse"
       id="clipPath94">
      <path
         d="M 0,1080 H 1920 V 0 H 0 Z"
         transform="translate(-307.36681,-521.52481)"
         id="path94" />
    </clipPath>
    <linearGradient
       x1="0"
       y1="0"
       x2="1"
       y2="0"
       gradientUnits="userSpaceOnUse"
       gradientTransform="matrix(-13.828754,23.713267,-23.713267,-13.828754,55.008378,206.05586)"
       spreadMethod="pad"
       id="linearGradient95">
      <stop
         style="stop-opacity:1;stop-color:#3990aa icc-color(sRGB IEC61966-2.1, 0.223526, 0.56469727, 0.66665649);"
         offset="0"
         id="stop94" />
      <stop
         style="stop-opacity:1;stop-color:#2a6a87 icc-color(sRGB IEC61966-2.1, 0.16470337, 0.41567993, 0.52940369);"
         offset="1"
         id="stop95" />
    </linearGradient>
    <clipPath
       clipPathUnits="userSpaceOnUse"
       id="clipPath97">
      <path
         d="M 0,1080 H 1920 V 0 H 0 Z"
         transform="translate(-334.81961,-392.75181)"
         id="path97" />
    </clipPath>
    <clipPath
       clipPathUnits="userSpaceOnUse"
       id="clipPath99">
      <path
         d="M 0,1080 H 1920 V 0 H 0 Z"
         transform="translate(-342.16161,-473.07561)"
         id="path99" />
    </clipPath>
    <linearGradient
       x1="0"
       y1="0"
       x2="1"
       y2="0"
       gradientUnits="userSpaceOnUse"
       gradientTransform="matrix(155.90617,0,0,155.90617,-16.933308,211.28113)"
       spreadMethod="pad"
       id="linearGradient101">
      <stop
         style="stop-opacity:1;stop-color:#95d1d8 icc-color(sRGB IEC61966-2.1, 0.58430481, 0.81959534, 0.8470459);"
         offset="0"
         id="stop99" />
      <stop
         style="stop-opacity:1;stop-color:#288192 icc-color(sRGB IEC61966-2.1, 0.15686035, 0.50587463, 0.57254028);"
         offset="0.283401"
         id="stop100" />
      <stop
         style="stop-opacity:1;stop-color:#0b3e53 icc-color(sRGB IEC61966-2.1, 0.0431366, 0.24313354, 0.32548523);"
         offset="1"
         id="stop101" />
    </linearGradient>
  </defs>
  <g
     inkscape:label="Layer 1"
     inkscape:groupmode="layer"
     id="layer1"
     transform="translate(16.933336,-133.08541)">
    <path
       id="path1"
       d="m 229.59374,146.63719 h -12.80442 v 9.90635 h 14.04126 l -0.35525,2.29694 H 214.22462 V 133.4493 h 16.00059 v 2.29693 h -13.43589 v 8.59402 h 12.80442 z"
       style="fill:#000000;fill-opacity:1;fill-rule:nonzero;stroke:none;stroke-width:0.352778" />
    <path
       id="path2"
       d="m 251.07187,135.74613 h -8.37847 v -2.29694 h 19.4063 v 2.29694 h -8.40316 v 23.09424 h -2.62467 z"
       style="fill:#000000;fill-opacity:1;fill-rule:nonzero;stroke:none;stroke-width:0.352778" />
    <path
       id="path3"
       d="m 274.93189,133.44923 h 2.59397 v 10.85462 h 14.33195 v -10.85462 h 2.59398 v 25.39118 h -2.59398 v -12.23963 h -14.33195 v 12.23963 h -2.59397 z"
       style="fill:#000000;fill-opacity:1;fill-rule:nonzero;stroke:none;stroke-width:0.352778" />
    <path
       id="path4"
       d="m 313.39012,158.84031 h -2.59398 v -25.39118 h 2.59398 z"
       style="fill:#000000;fill-opacity:1;fill-rule:nonzero;stroke:none;stroke-width:0.352778" />
    <path
       id="path5"
       d="m 0,0 c -3.303,-11.775 -12.039,-20.618 -27.762,-20.618 -21.054,0 -31.934,16.398 -31.934,36.693 0,19.487 10.773,37.171 32.153,37.171 16.181,0 25.357,-9.107 27.613,-21.137 h -7.353 c -2.969,8.671 -8.639,14.725 -20.602,14.725 -16.981,0 -24.029,-15.484 -24.029,-30.573 0,-14.838 6.845,-30.467 24.442,-30.467 11.439,0 16.907,6.199 20.102,14.206 z"
       style="fill:#000000;fill-opacity:1;fill-rule:nonzero;stroke:none"
       transform="matrix(0.35277776,0,0,-0.35277776,349.0398,151.86952)"
       clip-path="url(#clipPath6)" />
    <path
       id="path7"
       d="m 0,0 c 2.066,-9.142 8.227,-14.35 19.423,-14.35 12.288,0 17.059,5.987 17.059,13.343 0,7.716 -3.576,12.305 -18.776,16.024 -16.004,3.948 -22.272,9.277 -22.272,19.542 0,10.014 7.338,18.799 23.052,18.799 16.424,0 23.274,-9.775 24.219,-18.836 h -7.543 c -1.485,7.121 -6.057,12.54 -17.002,12.54 -9.653,0 -14.977,-4.433 -14.977,-11.929 0,-7.394 4.429,-10.289 17.399,-13.472 20.378,-5.02 23.649,-13.082 23.649,-21.991 0,-11.049 -8.113,-20.176 -25.197,-20.176 -18.043,0 -25.17,10.219 -26.577,20.506 z"
       style="fill:#000000;fill-opacity:1;fill-rule:nonzero;stroke:none"
       transform="matrix(0.35277776,0,0,-0.35277776,364.50041,151.90893)"
       clip-path="url(#clipPath8)" />
    <path
       id="path9"
       d="m 0,0 -18.122,-27.425 c -8.665,-13.077 -14.855,-19.59 -27.147,-19.59 -12.514,0 -19.455,9.515 -19.455,18.617 0,9.045 4.55,15.615 19.346,23.467 9.921,6.027 14.418,9.129 14.418,15.761 0,5.34 -3.327,10.457 -9.822,10.457 -6.066,0 -10.255,-3.839 -10.255,-10.836 0,-4.574 3.263,-8.739 9.068,-14.252 L 0.915,-45.984 H -8.868 L -47.594,-7.807 C -53.865,-1.794 -57.8,3.064 -57.8,10.252 c 0,8.625 5.911,16.77 17.175,16.77 9.891,0 16.416,-7.242 16.416,-16.142 0,-7.441 -4.411,-12.16 -17.142,-19.665 -13.562,-7.422 -16.07,-12.474 -16.07,-18.952 0,-6.928 5.781,-12.886 12.466,-12.886 8.203,0 13.308,3.068 22.471,17.353 L -7.634,0 Z"
       style="fill:#000000;fill-opacity:1;fill-rule:nonzero;stroke:none"
       transform="matrix(0.35277776,0,0,-0.35277776,434.24257,142.61835)"
       clip-path="url(#clipPath10)" />
    <path
       id="path11"
       d="M 0,0 H 43.717 V -5.156 H 5.568 v -27.219 h 35.777 v -5.156 H 5.568 V -72.174 H 0 Z"
       style="fill:#000000;fill-opacity:1;fill-rule:nonzero;stroke:none"
       transform="matrix(0.35277776,0,0,-0.35277776,215.11566,263.70403)"
       clip-path="url(#clipPath12)" />
    <path
       id="path13"
       d="m 0,0 c 0,-16.6 9.177,-32.272 26.498,-32.272 18.662,0 26.498,15.26 26.498,32.375 0,16.807 -8.867,31.551 -26.292,31.551 C 8.145,31.654 0,16.291 0,0 m 58.976,0.206 c 0,-19.693 -10.517,-37.633 -32.787,-37.633 -20.312,0 -32.169,16.394 -32.169,37.118 0,20.414 11.445,37.118 32.89,37.118 19.796,0 32.066,-15.569 32.066,-36.603"
       style="fill:#000000;fill-opacity:1;fill-rule:nonzero;stroke:none"
       transform="matrix(0.35277776,0,0,-0.35277776,245.15973,276.32564)"
       clip-path="url(#clipPath14)" />
    <path
       id="path15"
       d="m 0,0 h 17.425 c 12.681,0 18.559,4.742 18.559,14.228 0,8.868 -5.775,13.919 -17.013,13.919 H 0 Z m 0,-5.156 v -33.715 h -5.671 v 72.174 h 25.879 c 14.229,0 21.756,-7.63 21.756,-18.972 0,-9.176 -5.465,-15.156 -13.508,-16.909 7.424,-1.753 12.373,-6.599 12.373,-18.868 v -2.784 c 0,-5.052 -0.412,-11.857 0.928,-14.641 h -5.67 c -1.341,3.093 -1.032,8.867 -1.032,15.053 v 1.856 c 0,11.858 -3.505,16.806 -17.321,16.806 z"
       style="fill:#000000;fill-opacity:1;fill-rule:nonzero;stroke:none"
       transform="matrix(0.35277776,0,0,-0.35277776,282.69738,275.45255)"
       clip-path="url(#clipPath16)" />
    <path
       id="path17"
       d="m 0,0 v -43.717 c 0,-19.177 10.826,-24.127 21.033,-24.127 12.064,0 21.034,5.053 21.034,24.127 V 0 h 5.671 v -43.407 c 0,-22.58 -11.961,-29.592 -26.911,-29.592 -14.228,0 -26.601,7.733 -26.601,28.664 V 0 Z"
       style="fill:#000000;fill-opacity:1;fill-rule:nonzero;stroke:none"
       transform="matrix(0.35277776,0,0,-0.35277776,314.45188,263.70403)"
       clip-path="url(#clipPath18)" />
    <path
       id="path19"
       d="M 0,0 C 0,14.125 0.103,27.632 0.412,34.849 H 0.103 C -2.784,25.158 -17.425,-10.414 -26.601,-33.2 h -5.465 c -6.908,17.631 -22.064,57.223 -25.363,68.152 h -0.207 c 0.516,-8.248 0.722,-25.054 0.722,-37.427 V -33.2 h -5.567 v 72.174 h 8.351 c 9.898,-24.746 22.374,-57.121 25.054,-65.266 h 0.207 c 1.649,5.259 16.084,41.242 26.188,65.266 H 5.568 V -33.2 H 0 Z"
       style="fill:#000000;fill-opacity:1;fill-rule:nonzero;stroke:none"
       transform="matrix(0.35277776,0,0,-0.35277776,369.81182,277.45309)"
       clip-path="url(#clipPath20)" />
    <path
       id="path21"
       d="m 884.291,504.702 h -7.353 v 71.975 h 7.353 z"
       style="fill:#000000;fill-opacity:1;fill-rule:nonzero;stroke:none"
       transform="matrix(0.35277776,0,0,-0.35277776,-94.99106,401.15736)"
       clip-path="url(#clipPath22)" />
    <path
       id="path23"
       d="M 0,0 V 71.975 H 10.216 C 21.024,54.901 45.601,16.687 49.906,8.868 h 0.119 C 49.374,18.736 49.46,29.67 49.46,41.407 v 30.568 h 7.176 V 0 H 47.104 C 36.944,16.19 11.707,56.534 6.849,64.523 H 6.73 C 7.245,55.632 7.192,44.372 7.192,31.343 V 0 Z"
       style="fill:#000000;fill-opacity:1;fill-rule:nonzero;stroke:none"
       transform="matrix(0.35277776,0,0,-0.35277776,233.32344,223.10968)"
       clip-path="url(#clipPath24)" />
    <path
       id="path25"
       d="M 0,0 V 71.975 H 10.216 C 21.025,54.901 45.601,16.687 49.906,8.868 h 0.119 C 49.374,18.736 49.46,29.67 49.46,41.407 v 30.568 h 7.175 V 0 h -9.53 C 36.944,16.19 11.707,56.534 6.849,64.523 H 6.73 C 7.246,55.632 7.192,44.372 7.192,31.343 V 0 Z"
       style="fill:#000000;fill-opacity:1;fill-rule:nonzero;stroke:none"
       transform="matrix(0.35277776,0,0,-0.35277776,269.66036,223.10968)"
       clip-path="url(#clipPath26)" />
    <path
       id="path27"
       d="m 0,0 c 0,-16.104 8.614,-30.834 25.076,-30.834 17.753,0 25.043,14.566 25.043,30.871 0,16.194 -8.255,30.178 -24.919,30.178 C 7.682,30.215 0,15.844 0,0 m 57.902,0.156 c 0,-19.709 -10.765,-37.484 -33.185,-37.484 -20.675,0 -32.499,16.361 -32.499,37.019 0,20.464 11.709,37.018 33.271,37.018 19.978,0 32.413,-15.387 32.413,-36.553"
       style="fill:#000000;fill-opacity:1;fill-rule:nonzero;stroke:none"
       transform="matrix(0.35277776,0,0,-0.35277776,306.97685,210.30494)"
       clip-path="url(#clipPath28)" />
    <path
       id="path29"
       d="m 0,0 -26.493,71.975 h 7.898 L -5.201,35.131 C -1.329,24.384 2.827,12.983 4.391,6.684 h 0.206 c 1.53,5.593 6.082,17.547 9.988,28.068 l 13.909,37.223 h 7.663 L 8.699,0 Z"
       style="fill:#000000;fill-opacity:1;fill-rule:nonzero;stroke:none"
       transform="matrix(0.35277776,0,0,-0.35277776,348.20684,223.10968)"
       clip-path="url(#clipPath30)" />
    <path
       id="path31"
       d="m 0,0 c -7.496,20.272 -11.455,30.45 -12.948,35.578 h -0.103 C -14.804,29.832 -19.246,17.345 -25.295,0 Z M -27.485,-6.511 -36,-29.908 h -7.39 l 26.068,71.975 h 8.913 L 18.777,-29.908 H 10.858 L 2.121,-6.511 Z"
       style="fill:#000000;fill-opacity:1;fill-rule:nonzero;stroke:none"
       transform="matrix(0.35277776,0,0,-0.35277776,384.23782,212.55884)"
       clip-path="url(#clipPath32)" />
    <path
       id="path33"
       d="M 0,0 H -23.75 V 6.511 H 31.26 V 0 H 7.44 V -65.464 H 0 Z"
       style="fill:#000000;fill-opacity:1;fill-rule:nonzero;stroke:none"
       transform="matrix(0.35277776,0,0,-0.35277776,406.31802,200.0154)"
       clip-path="url(#clipPath34)" />
    <path
       id="path35"
       d="m 1496.021,504.702 h -7.353 v 71.975 h 7.353 z"
       style="fill:#000000;fill-opacity:1;fill-rule:nonzero;stroke:none"
       transform="matrix(0.35277776,0,0,-0.35277776,-94.99106,401.15736)"
       clip-path="url(#clipPath36)" />
    <path
       id="path37"
       d="m 0,0 c 0,-16.104 8.614,-30.834 25.076,-30.834 17.753,0 25.043,14.566 25.043,30.871 0,16.194 -8.255,30.178 -24.919,30.178 C 7.682,30.215 0,15.844 0,0 m 57.902,0.156 c 0,-19.709 -10.765,-37.484 -33.185,-37.484 -20.675,0 -32.499,16.361 -32.499,37.019 0,20.464 11.709,37.018 33.271,37.018 19.978,0 32.413,-15.387 32.413,-36.553"
       style="fill:#000000;fill-opacity:1;fill-rule:nonzero;stroke:none"
       transform="matrix(0.35277776,0,0,-0.35277776,450.10794,210.30494)"
       clip-path="url(#clipPath38)" />
    <path
       id="path39"
       d="M 0,0 V 71.975 H 10.216 C 21.025,54.901 45.601,16.687 49.906,8.868 h 0.12 C 49.374,18.736 49.46,29.67 49.46,41.407 v 30.568 h 7.175 V 0 h -9.53 C 36.944,16.19 11.707,56.534 6.849,64.523 H 6.73 C 7.246,55.632 7.192,44.372 7.192,31.343 V 0 Z"
       style="fill:#000000;fill-opacity:1;fill-rule:nonzero;stroke:none"
       transform="matrix(0.35277776,0,0,-0.35277776,485.10196,223.10968)"
       clip-path="url(#clipPath40)" />
    <path
       id="path46"
       d="m 174.59288,289.23403 h 2.33469 V 133.4322 h -2.33469 z"
       style="fill:url(#radialGradient46);stroke:none;stroke-width:0.352778" />
    <path
       id="path52"
       d="m 5.5583627,162.52614 c 1.9829638,-1.9551 4.5561243,-3.88162 6.7567523,-5.62222 v 0 c 2.351969,-1.86055 4.62033,-3.84669 7.20725,-5.3975 v 0 c 4.560005,-3.13055 9.782527,-6.18561 15.090068,-7.87118 v 0 c 14.895336,-5.76792 35.600921,-2.58939 45.83324,10.12014 v 0 c 7.906808,6.55355 11.655424,19.65042 10.022769,30.69766 v 0 c -4.202994,28.44059 -38.861998,39.70302 -55.405511,59.70904 v 0 c -2.713214,4.05166 -5.646561,7.87083 -7.20725,12.59417 v 0 c -1.378303,4.17054 -1.505303,7.54733 -1.351492,11.9193 v 0 c 0.733778,2.30258 1.654528,4.15008 2.928056,6.18455 v 0 l 6.531327,6.63399 C 99.428291,303.56457 158.86993,236.21682 126.27962,176.35714 v 0 C 116.61527,158.60678 98.825041,144.11431 79.545031,138.9126 v 0 c -6.329891,-1.70779 -12.799482,-2.54776 -19.21404,-2.54776 v 0 c -21.067888,-10e-4 -41.565335,9.05546 -54.7726283,26.1613"
       style="fill:url(#linearGradient52);stroke:none;stroke-width:0.352778" />
    <path
       id="path53"
       d="m 0,0 c -2.695,-17.431 -11.191,-35.615 -22.345,-49.087 -14.865,-29.069 -97.975,-79.07 -127.049,-110.923 -0.903,-2.617 -2.948,-5.378 -4.469,-7.65 46.895,56.709 145.141,88.635 157.055,169.254 4.628,31.315 -5.997,68.441 -28.41,87.017 -29.006,36.027 -87.699,45.037 -129.922,28.687 C -75.246,142.666 13.851,89.587 0,0"
       style="fill:#e1f5f9;fill-opacity:1;fill-rule:nonzero;stroke:none"
       transform="matrix(0.35277776,0,0,-0.35277776,89.342312,185.0154)"
       clip-path="url(#clipPath54)" />
    <path
       id="path55"
       d="m 0,0 c -7.238,-0.624 -23.82,-9.311 -30.326,-13.387 -68.269,-42.777 -87.5,-156.51 -73.101,-230.134 0.134,16.822 16.261,43.697 28.092,55.461 26.034,30.114 68.799,43.353 100.872,65.662 7.031,4.89 14.501,10.393 20.43,16.575 27.72,28.9 28.145,70.142 -6.384,93.711 C 30.306,-5.78 11.193,0.964 0,0"
       style="fill:#eeeeef;fill-opacity:1;fill-rule:nonzero;stroke:none"
       transform="matrix(0.35277776,0,0,-0.35277776,55.558408,162.52616)"
       clip-path="url(#clipPath56)" />
    <path
       id="path58"
       d="M 5.5583627,162.52614 C -29.695777,197.27863 -15.88735,255.69121 26.729614,277.44596 v 0 c -1.355725,-2.76472 -1.370894,-6.15985 -2.027413,-9.22055 v 0 c -0.5207,-2.42923 -0.445559,-3.2579 -1.576211,-5.62222 v 0 c 1.137355,4.19982 1.895827,8.46525 2.364669,12.81888 v 0 c -3.322814,-4.34269 -6.687255,-9.73772 -8.671277,-14.84277 v 0 c -0.19297,0.83256 -1.290461,-0.48119 -1.351139,-0.56232 v 0 C 8.0401543,250.04818 -3.8967868,223.83115 -5.7030089,211.66526 v 0 c -2.731911,-18.39983 4.2312164,-41.71597 18.4686209,-54.08648 v 0 l -0.450497,-0.67486 c -2.200628,1.7406 -4.7737885,3.66712 -6.7567523,5.62222"
       style="fill:url(#linearGradient58);stroke:none;stroke-width:0.352778" />
    <path
       id="path59"
       d="m 0,0 c -0.399,1.251 -2.506,5.427 -2.554,5.737 0.725,-3.216 1.268,-7.556 -2.553,-4.462 1.86,-8.676 1.903,-18.3 5.745,-26.137 8.744,-4.464 16.875,-8.24 26.176,-11.475 L 8.3,-17.531 C 4.69,-11.765 2.08,-6.528 0,0"
       style="fill:#11171e;fill-opacity:1;fill-rule:nonzero;stroke:none"
       transform="matrix(0.35277776,0,0,-0.35277776,26.504229,268.67534)"
       clip-path="url(#clipPath60)" />
    <path
       id="path61"
       d="m 0,0 c 15.334,-4.982 28.728,-14.418 40.221,-25.5 1.766,-1.701 3.713,-2.988 5.108,-5.099 0.468,-0.429 0.86,-0.892 1.277,-1.276 1.147,-1.057 2.934,-2.848 3.192,-4.462 3.97,-2.867 10.626,-16.199 12.769,-21.037 8.41,-18.993 10.021,-37.684 7.023,-58.33 3.333,-1.127 1.101,5.609 3.83,6.056 C 87.271,-20.061 -1.826,33.017 -81.72,7.65 -96.765,2.873 -111.569,-5.789 -124.495,-14.662 -92.884,4.289 -34.046,17.843 0,0"
       style="fill:#3c8186;fill-opacity:1;fill-rule:nonzero;stroke:none"
       transform="matrix(0.35277776,0,0,-0.35277776,63.441298,146.33391)"
       clip-path="url(#clipPath62)" />
    <path
       id="path63"
       d="m 0,0 c 17.302,-1.498 36.429,-8.389 39.902,-27.412 0.869,-0.255 0.605,-0.607 0.639,-0.638 5.838,1.868 11.718,-0.779 17.557,-1.275 2.776,0.732 -5.914,12.026 -7.342,13.706 -3.134,3.686 -11.847,11.55 -15.961,13.707 C 0.749,15.93 -58.089,2.377 -89.7,-16.575 c -7.332,-4.395 -13.763,-10.026 -20.43,-15.3 l 1.277,-1.912 C -79.755,-8.504 -38.404,3.326 0,0"
       style="fill:#f6ad36;fill-opacity:1;fill-rule:nonzero;stroke:none"
       transform="matrix(0.35277776,0,0,-0.35277776,51.166499,145.65926)"
       clip-path="url(#clipPath64)" />
    <path
       id="path65"
       d="m 0,0 2.554,-1.912 c 4.424,13.388 12.739,24.214 20.43,35.699 1.521,2.271 3.565,5.033 4.469,7.65 C 16.146,29.049 5.193,16.55 0,0"
       style="fill:#42acc5;fill-opacity:1;fill-rule:nonzero;stroke:none"
       transform="matrix(0.35277776,0,0,-0.35277776,26.95469,256.08138)"
       clip-path="url(#clipPath66)" />
    <path
       id="path67"
       d="M 0,0 C 0.072,-1.21 -0.111,-2.47 0,-3.187 0.048,-3.498 2.155,-7.673 2.554,-8.925 2.118,3.468 2.478,13.04 6.384,24.862 L 3.831,26.775 C 1.34,18.836 -0.493,8.319 0,0"
       style="fill:#2b718c;fill-opacity:1;fill-rule:nonzero;stroke:none"
       transform="matrix(0.35277776,0,0,-0.35277776,25.603342,265.52687)"
       clip-path="url(#clipPath68)" />
    <path
       id="path70"
       d="m 12.765612,157.57878 c -14.2374045,12.37051 -21.2005319,35.68665 -18.4686209,54.08648 v 0 c 1.8062221,12.16589 13.7431632,38.38292 21.1712519,48.35172 v 0 c 0.06068,0.0811 1.158169,1.39488 1.351139,0.56232 v 0 c -2.549173,-6.5599 -3.504847,-13.4627 -3.828697,-20.46534 v 0 c -0.670278,0.23566 -0.842787,-0.64453 -0.900995,-1.01212 v 0 c -0.477661,-3.00849 0.3556,-7.2016 0,-10.34485 v 0 l 1.218142,-10.44046 c -0.08184,-0.31927 0.112536,-0.84032 0.13335,-1.14159 v 0 c 0.20708,-2.98944 1.262944,-7.16421 2.027061,-10.11978 v 0 c 3.087864,-11.95141 8.655049,-23.01699 16.666632,-32.38465 v 0 c 6.625167,-7.747 15.987888,-15.52399 26.01348,-18.21638 v 0 c 1.117952,-0.30022 6.311899,-1.35467 7.094713,-1.12466 v 0 c -1.22555,-6.71089 -7.972777,-9.14188 -14.076538,-9.66999 v 0 c -1.495778,-0.12947 -3.004961,-0.19403 -4.519083,-0.19403 v 0 c -12.19835,0 -24.750182,4.17865 -33.881835,12.11333"
       style="fill:url(#linearGradient70);stroke:none;stroke-width:0.352778" />
    <path
       id="path73"
       d="m 71.774395,199.85814 c -2.155824,6.78391 -7.51593,13.46623 -12.950471,17.99166 v 0 C 45.17848,229.21277 25.786639,227.99357 21.774145,248.99726 v 0 c -0.437444,2.29129 -0.09278,4.93395 -0.900641,7.08413 v 0 c 0.378883,1.34937 0.983191,2.69487 1.351491,4.04812 v 0 c 0.2032,0.74577 0.639234,1.50777 0.900995,2.47368 v 0 c 1.130652,2.36432 1.055511,3.19299 1.576211,5.62222 v 0 c 1.348669,1.09185 1.156758,-0.43956 0.900994,-1.5741 v 0 c -0.03316,-0.14781 -0.606778,-0.89393 0,-1.12465 v 0 c -0.173919,-2.93441 0.472722,-6.64457 1.351492,-9.44527 v 0 c 1.831975,-5.83848 5.695949,-10.24784 9.684807,-14.61806 v 0 C 46.895802,230.2263 76.215515,212.58671 81.459203,202.33217 v 0 c 3.837517,-7.50394 3.103739,-17.78741 -0.900641,-25.07545 v 0 c -2.234495,-4.06717 -6.656917,-8.75347 -11.035947,-10.45739 v 0 c 12.180711,8.31427 12.03078,22.86353 2.25178,33.05881"
       style="fill:url(#linearGradient73);stroke:none;stroke-width:0.352778" />
    <path
       id="path76"
       d="m 65.693565,156.22941 c -11.562996,0.66886 -23.468187,8.54075 -31.081132,16.86665 v 0 c -8.547805,9.34826 -14.685079,22.02745 -18.018124,34.18382 v 0 c -1.016352,3.70628 -1.906058,7.43655 -2.477558,11.24443 v 0 c -1.07703,7.17797 -1.462264,14.32454 -1.126066,21.58965 v 0 c 0.32385,7.00264 1.279524,13.90544 3.828697,20.46534 v 0 c 1.984022,5.10505 5.348463,10.50008 8.671277,14.84277 v 0 c -0.468842,-4.35363 -1.227314,-8.61906 -2.364669,-12.81888 v 0 c -0.295275,-0.61736 -1.188156,-1.73637 -0.900995,-2.47368 v 0 c -0.3683,-1.35325 -0.972608,-2.69875 -1.351491,-4.04812 v 0 c -0.568678,-2.02636 -1.817511,-5.6702 -1.801636,-7.64611 v 0 c -5.08,-25.97326 1.704622,-66.09573 25.788054,-81.18651 v 0 c 2.295525,-1.43792 8.144933,-4.5025 10.698691,-4.72263 v 0 c 9.942336,-3.18312 21.271793,-1.6944 29.954712,4.04777 v 0 c -0.75565,-1.70674 -3.103738,-6.40962 -4.504266,-7.42104 v 0 c -2.843742,-2.05351 -9.856611,-2.95733 -14.028913,-2.95733 v 0 c -0.468136,0 -0.899936,0.0113 -1.286581,0.0339"
       style="fill:url(#linearGradient76);stroke:none;stroke-width:0.352778" />
    <path
       id="path77"
       d="m 0,0 c 11.193,0.964 30.306,-5.78 39.583,-12.112 12.414,-4.831 24.95,-18.115 31.283,-29.644 11.351,-20.66 13.432,-49.809 2.554,-71.08 11.155,13.472 19.65,31.656 22.345,49.087 -2.729,-0.447 -0.496,-7.182 -3.83,-6.056 2.998,20.646 1.387,39.337 -7.023,58.33 C 60.299,4.803 28.184,9.024 0,0"
       style="fill:#2b455e;fill-opacity:1;fill-rule:nonzero;stroke:none"
       transform="matrix(0.35277776,0,0,-0.35277776,55.558408,162.52616)"
       clip-path="url(#clipPath78)" />
    <path
       id="path79"
       d="M 0,0 C -0.258,1.614 -2.045,3.405 -3.192,4.462 -4.945,4.1 -4.239,5.39 -4.469,5.737 c -1.275,1.167 -4.977,2.371 -5.108,5.1 -11.493,11.082 -24.887,20.518 -40.221,25.5 4.114,-2.156 12.827,-10.021 15.961,-13.706 1.428,-1.68 10.119,-12.975 7.342,-13.706 -5.839,0.496 -11.719,3.142 -17.557,1.275 0.075,-0.067 0.092,-1.367 0.638,-1.913 C -32.547,8.916 -8.965,6.474 0,0"
       style="fill:#de9529;fill-opacity:1;fill-rule:nonzero;stroke:none"
       transform="matrix(0.35277776,0,0,-0.35277776,81.008959,159.15276)"
       clip-path="url(#clipPath80)" />
    <path
       id="path81"
       d="M 0,0 C -1.395,2.111 -3.342,3.398 -5.107,5.1 -4.977,2.37 -1.275,1.167 0,0"
       style="fill:#a4a074;fill-opacity:1;fill-rule:nonzero;stroke:none"
       transform="matrix(0.35277776,0,0,-0.35277776,79.43236,157.12874)"
       clip-path="url(#clipPath82)" />
    <path
       id="path83"
       d="M 0,0 C -0.416,0.384 -0.809,0.846 -1.277,1.275 -1.047,0.927 -1.752,-0.363 0,0"
       style="fill:#9ca88e;fill-opacity:1;fill-rule:nonzero;stroke:none"
       transform="matrix(0.35277776,0,0,-0.35277776,79.882823,157.57853)"
       clip-path="url(#clipPath84)" />
    <path
       id="path85"
       d="m 0,0 c -28.419,-7.632 -54.96,-29.678 -73.739,-51.637 3.109,-0.373 3.883,6.56 7.022,4.463 21.58,23.601 55.327,45.915 88.105,47.812 -0.547,0.545 -0.564,1.845 -0.639,1.912 -0.034,0.03 0.23,0.382 -0.638,0.638 C 17.892,3.84 3.168,0.851 0,0"
       style="fill:#feecbd;fill-opacity:1;fill-rule:nonzero;stroke:none"
       transform="matrix(0.35277776,0,0,-0.35277776,58.148501,156.45408)"
       clip-path="url(#clipPath86)" />
    <path
       id="path87"
       d="M 0,0 C -1.72,-0.653 -0.094,-2.768 0,-3.187 -0.111,-2.47 0.072,-1.21 0,0"
       style="fill:#11171e;fill-opacity:1;fill-rule:nonzero;stroke:none"
       transform="matrix(0.35277776,0,0,-0.35277776,25.603342,265.52687)"
       clip-path="url(#clipPath88)" />
    <path
       id="path89"
       d="m 0,0 c -22.71,-26.555 -38.491,-57.921 -47.244,-91.799 l 3.192,-0.637 c 9.448,34.459 26.845,70.399 51.075,96.898 C 3.883,6.559 3.109,-0.373 0,0"
       style="fill:#fcca88;fill-opacity:1;fill-rule:nonzero;stroke:none"
       transform="matrix(0.35277776,0,0,-0.35277776,32.13488,174.67036)"
       clip-path="url(#clipPath90)" />
    <path
       id="path91"
       d="m 0,0 -3.453,-29.595 c 1.008,-8.911 -1.354,-20.796 0,-29.325 0.165,-1.041 0.654,-3.536 2.554,-2.868 -0.953,20.594 0.138,40.851 3.192,61.199 C 0.762,-1.023 0.171,-0.665 0,0"
       style="fill:#e47130;fill-opacity:1;fill-rule:nonzero;stroke:none"
       transform="matrix(0.35277776,0,0,-0.35277776,13.307943,218.31645)"
       clip-path="url(#clipPath92)" />
    <path
       id="path93"
       d="M 0,0 C -0.059,-0.854 -0.61,-2.331 -0.378,-3.236 -0.207,-3.901 0.384,-4.259 1.915,-3.825 3.535,6.969 6.057,17.543 8.938,28.05 L 5.746,28.687 C 3.581,20.308 0.587,8.474 0,0"
       style="fill:#f19952;fill-opacity:1;fill-rule:nonzero;stroke:none"
       transform="matrix(0.35277776,0,0,-0.35277776,13.441115,217.175)"
       clip-path="url(#clipPath94)" />
    <path
       id="path95"
       d="m 64.567146,205.70578 c -3.959931,3.74968 -9.779,5.94043 -14.526683,8.77041 v 0 c -8.948208,5.33365 -18.349029,11.02889 -24.324379,19.79083 v 0 c -0.748594,-0.0938 -0.04304,-0.94827 0.112536,-1.23684 v 0 c 0.615244,-1.14194 2.275769,-3.14572 3.152775,-4.16066 v 0 c -4.173008,4.15008 -9.862255,13.63133 -9.909527,19.56576 v 0 c -0.01587,1.97591 1.232958,5.61975 1.801636,7.64611 v 0 c 0.807861,-2.15018 0.463197,-4.79284 0.900641,-7.08413 v 0 C 25.786639,227.99357 45.17848,229.21277 58.823924,217.8498 v 0 c 5.434541,-4.52543 10.794647,-11.20775 12.950471,-17.99166 v 0 c -2.091619,2.18087 -4.726869,4.1222 -7.207249,5.84764"
       style="fill:url(#linearGradient95);stroke:none;stroke-width:0.352778" />
    <path
       id="path96"
       d="M 0,0 C -0.742,2.738 -1.978,4.898 -2.554,7.012 -3.367,4.922 -0.837,1.751 0,0"
       style="fill:#491d14;fill-opacity:1;fill-rule:nonzero;stroke:none"
       transform="matrix(0.35277776,0,0,-0.35277776,23.125852,262.60326)"
       clip-path="url(#clipPath97)" />
    <path
       id="path98"
       d="M 0,0 C 16.938,24.837 43.586,40.98 68.951,56.099 82.41,64.122 98.904,70.332 110.13,80.961 78.057,58.652 35.292,45.413 9.257,15.3 6.77,12.423 2.063,6.742 0.319,3.506 -0.122,2.688 -2.122,0.266 0,0"
       style="fill:#2b718c;fill-opacity:1;fill-rule:nonzero;stroke:none"
       transform="matrix(0.35277776,0,0,-0.35277776,25.715948,234.2668)"
       clip-path="url(#clipPath99)" />
    <path
       id="path101"
       d="m -16.933336,211.28108 c 0,43.05229 34.900656,77.95295 77.953301,77.95295 v 0 c 43.051935,0 77.952945,-34.90066 77.952945,-77.95295 v 0 c 0,-43.05229 -34.90101,-77.95295 -77.952945,-77.95295 v 0 c -43.052645,0 -77.953301,34.90066 -77.953301,77.95295 m 7.79533,0 c 0,-38.74699 31.410626,-70.15762 70.157971,-70.15762 v 0 c 38.746993,0 70.157615,31.41063 70.157615,70.15762 v 0 c 0,38.74735 -31.410622,70.15797 -70.157615,70.15797 v 0 c -38.747345,0 -70.157971,-31.41062 -70.157971,-70.15797"
       style="fill:url(#linearGradient101);stroke:none;stroke-width:0.352778" />
  </g>
</svg>
