<svg width="250" height="70" viewBox="0 0 250 70" fill="none" xmlns="http://www.w3.org/2000/svg">
<path d="M68.6419 17.6299H75.4163C77.3751 17.6299 78.9259 18.2012 79.9053 19.1806C80.6399 19.9152 81.1296 21.0579 81.1296 22.2822V22.3638C81.1296 24.9756 79.334 26.5264 76.8038 27.0161L81.701 33.464H79.4972L74.9266 27.3426H74.8449H70.3559V33.464H68.5602V17.6299H68.6419ZM75.253 25.7102C77.62 25.7102 79.334 24.4859 79.334 22.4454V22.3638C79.334 20.4049 77.8648 19.2623 75.253 19.2623H70.3559V25.7102H75.253Z" fill="#004976"/>
<path d="M83.8231 25.547C83.8231 21.1396 87.0878 17.3035 91.9034 17.3035C96.7189 17.3035 99.9837 21.058 99.9837 25.4654C99.9837 25.4654 99.9837 25.4654 99.9837 25.547C99.9837 29.9545 96.7189 33.709 91.9034 33.709C87.0878 33.709 83.8231 29.9545 83.8231 25.547ZM98.1064 25.547C98.1064 21.8742 95.4946 18.9359 91.8218 18.9359C88.2305 18.9359 85.6187 21.7925 85.6187 25.4654V25.547C85.6187 29.1383 88.2305 32.0766 91.9034 32.0766C95.5763 32.0766 98.1064 29.2199 98.1064 25.547Z" fill="#004976"/>
<path d="M106.921 27.1793L100.31 17.6299H102.514L107.819 25.547L113.206 17.6299H115.328L108.717 27.1793V33.464H106.921V27.1793Z" fill="#004976"/>
<path d="M121.041 17.4669H122.755L129.938 33.3827H127.979L126.102 29.2201H117.45L115.573 33.3827H113.777L121.041 17.4669ZM125.531 27.6693L121.939 19.589L118.348 27.6693H125.531Z" fill="#004976"/>
<path d="M132.631 17.6299H134.427V31.8316H143.324V33.464H132.631V17.6299Z" fill="#004976"/>
<path d="M151.486 31.1788L152.628 29.8728C154.261 31.342 155.893 32.0766 158.097 32.0766C160.219 32.0766 161.606 30.9339 161.606 29.3831V29.3015C161.606 27.8324 160.79 27.0162 157.525 26.2816C153.852 25.4654 152.22 24.3227 152.22 21.7109V21.6293C152.22 19.1807 154.424 17.3035 157.444 17.3035C159.729 17.3035 161.443 17.9564 162.994 19.2623L161.933 20.6499C160.464 19.4256 158.994 18.9359 157.362 18.9359C155.322 18.9359 154.016 20.0785 154.016 21.4661V21.6293C154.016 23.0984 154.832 23.9963 158.342 24.7308C161.851 25.4654 163.484 26.7713 163.484 29.2199V29.3015C163.484 31.9949 161.198 33.7906 158.097 33.7906C155.485 33.709 153.363 32.8111 151.486 31.1788Z" fill="#004976"/>
<path d="M165.85 25.547C165.85 21.1396 169.115 17.3035 173.931 17.3035C178.746 17.3035 182.011 21.058 182.011 25.4654C182.011 25.4654 182.011 25.4654 182.011 25.547C182.011 29.9545 178.746 33.709 173.931 33.709C169.115 33.709 165.85 29.9545 165.85 25.547ZM180.134 25.547C180.134 21.8742 177.522 18.9359 173.849 18.9359C170.258 18.9359 167.646 21.7925 167.646 25.4654V25.547C167.646 29.1383 170.258 32.0766 173.931 32.0766C177.604 32.0766 180.134 29.2199 180.134 25.547Z" fill="#004976"/>
<path d="M184.623 25.547C184.623 21.058 187.969 17.3035 192.622 17.3035C195.478 17.3035 197.192 18.2829 198.825 19.8337L197.6 21.1396C196.295 19.8337 194.744 18.9359 192.622 18.9359C189.112 18.9359 186.5 21.7925 186.5 25.4654V25.547C186.5 29.2199 189.112 32.0766 192.622 32.0766C194.825 32.0766 196.213 31.2604 197.764 29.7912L198.906 30.9339C197.274 32.6479 195.478 33.709 192.54 33.709C188.051 33.709 184.623 30.1177 184.623 25.547Z" fill="#004976"/>
<path d="M201.763 17.6299H203.559V33.464H201.763V17.6299Z" fill="#004976"/>
<path d="M207.721 17.6299H219.148V19.2623H209.517V24.6491H218.168V26.2815H209.517V31.8316H219.311V33.464H207.721V17.6299Z" fill="#004976"/>
<path d="M226.575 19.2623H221.27V17.6299H233.676V19.2623H228.371V33.464H226.575V19.2623Z" fill="#004976"/>
<path d="M241.593 27.1793L234.982 17.6299H237.186L242.491 25.547L247.878 17.6299H250L243.389 27.1793V33.464H241.593V27.1793Z" fill="#004976"/>
<path d="M67.9073 48.2371C67.9073 43.8296 71.1721 39.9935 75.9876 39.9935C80.8032 39.9935 84.0679 43.748 84.0679 48.1555C84.0679 48.1555 84.0679 48.1555 84.0679 48.2371C84.0679 52.6445 80.8032 56.399 75.9876 56.399C71.1721 56.399 67.9073 52.5629 67.9073 48.2371ZM82.2723 48.2371C82.2723 44.5642 79.6605 41.6259 75.9876 41.6259C72.3964 41.6259 69.7845 44.4826 69.7845 48.1555V48.2371C69.7845 51.8283 72.3964 54.7666 76.0692 54.7666C79.6605 54.685 82.2723 51.8283 82.2723 48.2371Z" fill="#004976"/>
<path d="M88.3121 40.2385H99.6572V41.8709H90.0262V47.5026H98.5962V49.135H90.0262V56.0727H88.2305V40.2385H88.3121Z" fill="#004976"/>
<path d="M117.042 56.399C112.39 56.399 108.88 52.8078 108.88 48.2371V48.1555C108.88 43.6664 112.308 39.9935 117.124 39.9935C120.144 39.9935 121.939 40.973 123.408 42.4421L121.205 44.9723C119.98 43.8296 118.756 43.1767 117.124 43.1767C114.43 43.1767 112.553 45.3804 112.553 48.0738V48.1555C112.553 50.8489 114.43 53.1342 117.124 53.1342C118.919 53.1342 120.062 52.3997 121.286 51.257L123.49 53.4607C121.939 55.2563 120.062 56.399 117.042 56.399Z" fill="#004976"/>
<path d="M136.876 56.0727V49.7064H130.428V56.0727H127V40.2385H130.509V46.5232H136.957V40.2385H140.467V56.0727H136.876Z" fill="#004976"/>
<path d="M144.874 56.0727V40.2385H156.791V43.3401H148.302V46.5232H155.73V49.6247H148.302V52.9711H156.872V56.0727H144.874Z" fill="#004976"/>
<path d="M173.115 56.0727V45.707L168.626 52.4814H168.544L164.136 45.7886V56.0727H160.708V40.2385H164.463L168.626 46.9313L172.788 40.2385H176.543V56.0727H173.115Z" fill="#004976"/>
<path d="M181.195 56.0727V40.2385H184.705V56.0727H181.195Z" fill="#004976"/>
<path d="M194.907 56.3174C192.54 56.3174 190.091 55.5012 188.214 53.7872L190.255 51.3386C191.642 52.4813 193.193 53.2975 194.989 53.2975C196.376 53.2975 197.274 52.7261 197.274 51.8283V51.7467C197.274 50.8489 196.703 50.4408 194.091 49.7062C190.908 48.89 188.867 47.9922 188.867 44.8907V44.8091C188.867 41.9524 191.153 39.9935 194.417 39.9935C196.703 39.9935 198.661 40.7281 200.294 42.034L198.498 44.6458C197.111 43.6664 195.723 43.0951 194.417 43.0951C193.111 43.0951 192.377 43.6664 192.377 44.4826V44.5642C192.377 45.6253 193.03 45.9517 195.805 46.6863C198.988 47.5025 200.865 48.6452 200.865 51.4202V51.5019C200.784 54.5218 198.335 56.3174 194.907 56.3174Z" fill="#004976"/>
<path d="M211.312 43.4217V56.0727H207.803V43.4217H202.987V40.2385H216.128V43.4217H211.312Z" fill="#004976"/>
<path d="M229.105 56.0727L225.677 51.0123H222.902V56.0727H219.393V40.2385H226.657C230.411 40.2385 232.615 42.1974 232.615 45.4622V45.5438C232.615 48.074 231.228 49.7064 229.187 50.4409L233.023 56.0727H229.105ZM229.187 45.6254C229.187 44.1563 228.126 43.3401 226.412 43.3401H222.984V47.9107H226.494C228.208 47.9107 229.187 47.0129 229.187 45.6254Z" fill="#004976"/>
<path d="M243.879 49.7879V56.0726H240.369V49.7879L234.247 40.1569H238.328L242.083 46.5232L245.919 40.1569H249.918L243.879 49.7879Z" fill="#004976"/>
<path d="M59.9902 13.7938C58.5211 12.3247 56.8887 11.0188 55.1747 9.7945C53.4608 8.65183 51.5835 7.59078 49.6246 6.77459C47.6658 5.95839 45.6253 5.30544 43.5032 4.89734C41.3811 4.48924 39.1774 4.24438 36.9737 4.24438V17.0586C38.3612 17.0586 39.6671 17.2219 40.973 17.4667C42.2789 17.7116 43.5032 18.1197 44.6459 18.6094C45.7885 19.0991 46.9312 19.7521 47.9923 20.405C49.0533 21.1396 50.0327 21.9558 50.9306 22.8536L59.9902 13.7938Z" fill="#004976"/>
<path d="M50.9305 50.8491C50.0327 51.7469 49.0533 52.5631 47.9922 53.2977C46.9312 54.0323 45.7885 54.6036 44.6459 55.0933C43.5032 55.583 42.1973 55.9911 40.973 56.236C39.7487 56.4809 38.3612 56.6441 36.9736 56.6441C35.5861 56.6441 34.2802 56.4809 32.9743 56.236C31.6684 55.9911 30.4441 55.583 29.3014 55.0933C28.1587 54.6036 27.0161 53.9507 25.955 53.2977C24.894 52.6447 23.9145 51.7469 23.0167 50.8491L13.957 59.9086C15.4261 61.3778 17.0585 62.6837 18.7725 63.908C20.4865 65.0506 22.3638 66.1117 24.3226 66.9279C26.2815 67.7441 28.322 68.397 30.4441 68.8051C32.5662 69.2132 34.7699 69.4581 36.9736 69.4581C39.1774 69.4581 41.3811 69.2132 43.5032 68.8051C45.6253 68.397 47.6658 67.7441 49.6246 66.9279C51.5835 66.1117 53.4607 65.1323 55.1747 63.908C56.8887 62.7653 58.5211 61.3778 59.9902 59.9086L50.9305 50.8491Z" fill="#004976"/>
<path d="M22.9351 50.849C22.0373 49.9512 21.2211 48.9718 20.4865 47.9107C19.752 46.8497 19.1806 45.707 18.6909 44.5643C18.2012 43.4216 17.7931 42.1157 17.5482 40.8914C17.3034 39.5855 17.1401 38.2796 17.1401 36.8921H4.32582C4.32582 39.1774 4.57067 41.2995 4.97877 43.4216C5.38687 45.5437 6.03982 47.5842 6.85602 49.5431C7.67221 51.502 8.65172 53.3792 9.87601 55.0932C11.0187 56.8072 12.4062 58.4394 13.8754 59.9086L22.9351 50.849Z" fill="#EEDC00"/>
<path d="M17.1401 36.8919C17.1401 35.5043 17.3034 34.1984 17.5482 32.8925C17.7931 31.5866 18.2012 30.3623 18.6909 29.2196C19.1806 28.077 19.8336 26.9343 20.4865 25.8732C21.1395 24.8122 22.0373 23.8328 22.9351 22.9349L13.8754 13.7936C12.4062 15.2627 11.1003 16.8951 9.87601 18.6091C8.73334 20.3231 7.67221 22.2004 6.85602 24.1592C6.03982 26.1181 5.38687 28.1586 4.97877 30.2807C4.57067 32.4028 4.32582 34.6065 4.32582 36.8102H17.1401V36.8919Z" fill="#97D700"/>
<path d="M22.935 22.8536C23.8328 21.9558 24.8123 21.1396 25.8733 20.405C26.9344 19.6704 28.0771 19.0991 29.2197 18.6094C30.3624 18.1197 31.6683 17.7116 32.8926 17.4667C34.1985 17.2219 35.5044 17.0586 36.8919 17.0586V4.24438C34.6066 4.24438 32.4845 4.48924 30.3624 4.89734C28.2403 5.30544 26.1998 5.95839 24.2409 6.77459C22.2821 7.59078 20.4048 8.57021 18.6908 9.7945C16.9768 10.9372 15.3444 12.3247 13.8753 13.7938L22.935 22.8536Z" fill="#48A9C5"/>
<path opacity="0.5" d="M43.9929 0.652954C41.7076 0.244857 39.3405 0 36.9736 0C34.4434 0 31.9132 0.244858 29.5462 0.734574C27.1792 1.22429 24.8123 1.95886 22.6086 2.85668C20.4048 3.75449 18.2828 4.89716 16.3239 6.28469C14.3651 7.5906 12.5695 9.14137 10.8554 10.7738C9.14144 12.4061 7.67221 14.2834 6.3663 16.2422L24.0778 28.1587C24.6491 27.3425 25.302 26.5263 25.9549 25.8733C26.6895 25.1388 27.4242 24.5674 28.2404 23.9961C29.0566 23.4247 29.9543 22.935 30.8521 22.5269C31.7499 22.1188 32.7294 21.7924 33.7905 21.6291C34.7699 21.3843 35.8309 21.3026 36.8919 21.3026C37.8714 21.3026 38.8508 21.3843 39.8302 21.5475L43.9929 0.652954Z" fill="#48A9C5"/>
<path opacity="0.5" d="M25.955 47.8291C25.2204 47.0945 24.649 46.3599 24.0777 45.5437C23.5064 44.7275 23.0167 43.8297 22.6086 42.9319C22.2005 42.0341 21.874 41.0547 21.7107 39.9936C21.5475 38.9325 21.3843 37.9531 21.3843 36.8921C21.3843 35.9126 21.4659 34.9332 21.6291 33.9538L0.652954 29.8728C0.244857 32.1581 0 34.5251 0 36.8921C0 39.4223 0.244859 41.9525 0.734575 44.3194C1.22429 46.6864 1.95886 49.0533 2.85668 51.2571C3.75449 53.4608 4.89716 55.5829 6.28469 57.5417C7.5906 59.5005 9.14137 61.2962 10.7738 63.0102C12.4061 64.6426 14.2834 66.1933 16.2423 67.4992L28.2403 49.7063C27.4241 49.135 26.6895 48.482 25.955 47.8291Z" fill="#EEDC00"/>
</svg>
